# xmcd CD database file
#
# Track frame offsets:
#	150
#	36333
#	58674
#	89253
#	123909
#	144966
#	152856
#	182341
#	204089
#	211221
#	237846
#	265886
#
# Disc length: 3876 seconds
#
# Revision: 0
# Processed by: cddbd v1.5.2PL0 Copyright (c) Steve Scherf et al.
# Submitted via: CDex 1.75
#
DISCID=9c0f220c
DTITLE=Burak Bedikyan - Circle of Life
DYEAR=2013
DGENRE=Jazz
TTITLE0=First Steps
TTITLE1=Here, there and everywhere
TTITLE2=Do you still have hope?
TTITLE3=For old times sake
TTITLE4=Prayer for forgiveness Part 1: Delusion
TTITLE5=Prayer for forgiveness Part 2: Serenity
TTITLE6=Joy of Giving
TTITLE7=TF (for Tommy Flanagan)
TTITLE8=Intro
TTITLE9=Melancholia
TTITLE10=Circle of Life
TTITLE11=19.01.2007 (in the memory of Hrant Dink)
EXTD=YEAR: 2013
EXTT0=
EXTT1=
EXTT2=
EXTT3=
EXTT4=
EXTT5=
EXTT6=
EXTT7=
EXTT8=
EXTT9=
EXTT10=
EXTT11=
PLAYORDER=
